<mxfile host="app.diagrams.net" modified="2020-12-30T03:43:16.749Z" agent="5.0 (Macintosh; Intel Mac OS X 11_1_0) AppleWebKit/537.36 (KHTML, like Gecko) Chrome/87.0.4280.88 Safari/537.36" etag="5ufKcmBNvWWCYmfBJ2hV" version="14.1.3" type="github">
  <diagram id="ufc3UpPQxjtCwLvqwBDd" name="Page-1">
    <mxGraphModel dx="1426" dy="768" grid="1" gridSize="10" guides="1" tooltips="1" connect="1" arrows="1" fold="1" page="1" pageScale="1" pageWidth="827" pageHeight="1169" background="none" math="0" shadow="0">
      <root>
        <mxCell id="0" />
        <mxCell id="1" parent="0" />
        <mxCell id="4br2IXSDRD2dIp-kTlyZ-7" value="" style="rounded=1;whiteSpace=wrap;html=1;absoluteArcSize=1;arcSize=14;strokeWidth=2;shadow=0;sketch=1;fontFamily=Comic Sans MS;" parent="1" vertex="1">
          <mxGeometry x="80" y="60" width="330" height="580" as="geometry" />
        </mxCell>
        <mxCell id="4br2IXSDRD2dIp-kTlyZ-12" style="edgeStyle=orthogonalEdgeStyle;rounded=0;sketch=1;orthogonalLoop=1;jettySize=auto;html=1;exitX=1;exitY=0.5;exitDx=0;exitDy=0;entryX=-0.009;entryY=0.076;entryDx=0;entryDy=0;entryPerimeter=0;shadow=0;fontFamily=Comic Sans MS;" parent="1" source="4br2IXSDRD2dIp-kTlyZ-8" target="4br2IXSDRD2dIp-kTlyZ-11" edge="1">
          <mxGeometry relative="1" as="geometry" />
        </mxCell>
        <mxCell id="4br2IXSDRD2dIp-kTlyZ-15" value="operate" style="edgeLabel;html=1;align=center;verticalAlign=middle;resizable=0;points=[];fontFamily=Comic Sans MS;labelBorderColor=#67AB9F;" parent="4br2IXSDRD2dIp-kTlyZ-12" vertex="1" connectable="0">
          <mxGeometry x="-0.1108" y="1" relative="1" as="geometry">
            <mxPoint x="20" y="1" as="offset" />
          </mxGeometry>
        </mxCell>
        <mxCell id="4br2IXSDRD2dIp-kTlyZ-8" value="Header" style="rounded=1;whiteSpace=wrap;html=1;absoluteArcSize=1;arcSize=14;strokeWidth=2;shadow=0;sketch=1;fontFamily=Comic Sans MS;fillColor=#f8cecc;strokeColor=#b85450;" parent="1" vertex="1">
          <mxGeometry x="90" y="70" width="310" height="70" as="geometry" />
        </mxCell>
        <mxCell id="4br2IXSDRD2dIp-kTlyZ-13" style="edgeStyle=orthogonalEdgeStyle;rounded=0;sketch=1;orthogonalLoop=1;jettySize=auto;html=1;exitX=1;exitY=0.5;exitDx=0;exitDy=0;entryX=0;entryY=0.516;entryDx=0;entryDy=0;entryPerimeter=0;shadow=0;fontFamily=Comic Sans MS;" parent="1" source="4br2IXSDRD2dIp-kTlyZ-9" target="4br2IXSDRD2dIp-kTlyZ-11" edge="1">
          <mxGeometry relative="1" as="geometry" />
        </mxCell>
        <mxCell id="4br2IXSDRD2dIp-kTlyZ-16" value="operate" style="edgeLabel;html=1;align=center;verticalAlign=middle;resizable=0;points=[];fontFamily=Comic Sans MS;labelBorderColor=#67AB9F;" parent="4br2IXSDRD2dIp-kTlyZ-13" vertex="1" connectable="0">
          <mxGeometry x="0.0247" y="-1" relative="1" as="geometry">
            <mxPoint as="offset" />
          </mxGeometry>
        </mxCell>
        <mxCell id="4br2IXSDRD2dIp-kTlyZ-9" value="PDF Content" style="rounded=1;whiteSpace=wrap;html=1;absoluteArcSize=1;arcSize=14;strokeWidth=2;shadow=0;sketch=1;fontFamily=Comic Sans MS;fillColor=#ffe6cc;strokeColor=#d79b00;" parent="1" vertex="1">
          <mxGeometry x="90" y="160" width="310" height="400" as="geometry" />
        </mxCell>
        <mxCell id="4br2IXSDRD2dIp-kTlyZ-14" style="edgeStyle=orthogonalEdgeStyle;rounded=0;sketch=1;orthogonalLoop=1;jettySize=auto;html=1;exitX=1;exitY=0.5;exitDx=0;exitDy=0;entryX=-0.036;entryY=0.941;entryDx=0;entryDy=0;entryPerimeter=0;shadow=0;fontFamily=Comic Sans MS;" parent="1" source="4br2IXSDRD2dIp-kTlyZ-10" target="4br2IXSDRD2dIp-kTlyZ-11" edge="1">
          <mxGeometry relative="1" as="geometry" />
        </mxCell>
        <mxCell id="4br2IXSDRD2dIp-kTlyZ-17" value="operate" style="edgeLabel;html=1;align=center;verticalAlign=middle;resizable=0;points=[];fontFamily=Comic Sans MS;labelBorderColor=#67AB9F;" parent="4br2IXSDRD2dIp-kTlyZ-14" vertex="1" connectable="0">
          <mxGeometry x="-0.0256" relative="1" as="geometry">
            <mxPoint x="10" as="offset" />
          </mxGeometry>
        </mxCell>
        <mxCell id="4br2IXSDRD2dIp-kTlyZ-10" value="Controller Bar" style="rounded=1;whiteSpace=wrap;html=1;absoluteArcSize=1;arcSize=14;strokeWidth=2;shadow=0;sketch=1;fontFamily=Comic Sans MS;fillColor=#d5e8d4;strokeColor=#82b366;" parent="1" vertex="1">
          <mxGeometry x="90" y="580" width="310" height="50" as="geometry" />
        </mxCell>
        <mxCell id="4br2IXSDRD2dIp-kTlyZ-32" style="edgeStyle=orthogonalEdgeStyle;rounded=0;sketch=1;orthogonalLoop=1;jettySize=auto;html=1;exitX=1;exitY=0.25;exitDx=0;exitDy=0;entryX=0;entryY=0.25;entryDx=0;entryDy=0;shadow=0;fontFamily=Comic Sans MS;" parent="1" source="4br2IXSDRD2dIp-kTlyZ-11" target="4br2IXSDRD2dIp-kTlyZ-31" edge="1">
          <mxGeometry relative="1" as="geometry" />
        </mxCell>
        <mxCell id="4br2IXSDRD2dIp-kTlyZ-33" value="Transform" style="edgeLabel;html=1;align=center;verticalAlign=middle;resizable=0;points=[];fontFamily=Comic Sans MS;" parent="4br2IXSDRD2dIp-kTlyZ-32" vertex="1" connectable="0">
          <mxGeometry relative="1" as="geometry">
            <mxPoint as="offset" />
          </mxGeometry>
        </mxCell>
        <mxCell id="4br2IXSDRD2dIp-kTlyZ-11" value="Page Data Model" style="rounded=1;whiteSpace=wrap;html=1;absoluteArcSize=1;arcSize=14;strokeWidth=2;shadow=0;sketch=1;fontFamily=Comic Sans MS;fillColor=#e1d5e7;strokeColor=#9673a6;" parent="1" vertex="1">
          <mxGeometry x="560" y="60" width="110" height="580" as="geometry" />
        </mxCell>
        <mxCell id="4br2IXSDRD2dIp-kTlyZ-18" value="Some Page" style="text;html=1;strokeColor=none;fillColor=none;align=center;verticalAlign=middle;whiteSpace=wrap;rounded=0;shadow=0;sketch=1;fontFamily=Comic Sans MS;" parent="1" vertex="1">
          <mxGeometry x="202.5" y="30" width="85" height="20" as="geometry" />
        </mxCell>
        <mxCell id="4br2IXSDRD2dIp-kTlyZ-37" style="edgeStyle=orthogonalEdgeStyle;rounded=0;sketch=1;orthogonalLoop=1;jettySize=auto;html=1;exitX=1;exitY=0.75;exitDx=0;exitDy=0;entryX=0;entryY=0.75;entryDx=0;entryDy=0;shadow=0;fontFamily=Comic Sans MS;" parent="1" source="4br2IXSDRD2dIp-kTlyZ-23" target="4br2IXSDRD2dIp-kTlyZ-24" edge="1">
          <mxGeometry relative="1" as="geometry" />
        </mxCell>
        <mxCell id="4br2IXSDRD2dIp-kTlyZ-38" value="Modify" style="edgeLabel;html=1;align=center;verticalAlign=middle;resizable=0;points=[];fontFamily=Comic Sans MS;" parent="4br2IXSDRD2dIp-kTlyZ-37" vertex="1" connectable="0">
          <mxGeometry x="-0.1143" y="2" relative="1" as="geometry">
            <mxPoint x="7" y="1" as="offset" />
          </mxGeometry>
        </mxCell>
        <mxCell id="4br2IXSDRD2dIp-kTlyZ-23" value="UI view" style="whiteSpace=wrap;html=1;aspect=fixed;rounded=1;shadow=1;glass=1;sketch=1;strokeWidth=1;fillColor=#ffffff;gradientColor=none;fontFamily=Comic Sans MS;" parent="1" vertex="1">
          <mxGeometry x="80" y="830" width="210" height="210" as="geometry" />
        </mxCell>
        <mxCell id="4br2IXSDRD2dIp-kTlyZ-35" style="edgeStyle=orthogonalEdgeStyle;rounded=0;sketch=1;orthogonalLoop=1;jettySize=auto;html=1;exitX=0;exitY=0.25;exitDx=0;exitDy=0;entryX=1;entryY=0.25;entryDx=0;entryDy=0;shadow=0;fontFamily=Comic Sans MS;" parent="1" source="4br2IXSDRD2dIp-kTlyZ-24" target="4br2IXSDRD2dIp-kTlyZ-23" edge="1">
          <mxGeometry relative="1" as="geometry" />
        </mxCell>
        <mxCell id="4br2IXSDRD2dIp-kTlyZ-36" value="Show" style="edgeLabel;html=1;align=center;verticalAlign=middle;resizable=0;points=[];fontFamily=Comic Sans MS;" parent="4br2IXSDRD2dIp-kTlyZ-35" vertex="1" connectable="0">
          <mxGeometry x="0.381" y="1" relative="1" as="geometry">
            <mxPoint x="25" as="offset" />
          </mxGeometry>
        </mxCell>
        <mxCell id="4br2IXSDRD2dIp-kTlyZ-58" style="edgeStyle=orthogonalEdgeStyle;rounded=0;sketch=1;orthogonalLoop=1;jettySize=auto;html=1;exitX=1;exitY=0.25;exitDx=0;exitDy=0;entryX=0;entryY=0.25;entryDx=0;entryDy=0;shadow=0;fontFamily=Comic Sans MS;" parent="1" source="4br2IXSDRD2dIp-kTlyZ-24" target="4br2IXSDRD2dIp-kTlyZ-57" edge="1">
          <mxGeometry relative="1" as="geometry" />
        </mxCell>
        <mxCell id="4br2IXSDRD2dIp-kTlyZ-59" value="Forward&lt;br&gt;Transformation" style="edgeLabel;html=1;align=center;verticalAlign=middle;resizable=0;points=[];fontFamily=Comic Sans MS;" parent="4br2IXSDRD2dIp-kTlyZ-58" vertex="1" connectable="0">
          <mxGeometry x="-0.299" y="-2" relative="1" as="geometry">
            <mxPoint x="22" y="1" as="offset" />
          </mxGeometry>
        </mxCell>
        <mxCell id="4br2IXSDRD2dIp-kTlyZ-24" value="Data Flow" style="whiteSpace=wrap;html=1;aspect=fixed;rounded=1;shadow=1;glass=1;sketch=1;strokeWidth=1;fillColor=#ffffff;gradientColor=none;fontFamily=Comic Sans MS;" parent="1" vertex="1">
          <mxGeometry x="404" y="830" width="210" height="210" as="geometry" />
        </mxCell>
        <mxCell id="4br2IXSDRD2dIp-kTlyZ-34" value="Transform" style="edgeStyle=orthogonalEdgeStyle;rounded=0;sketch=1;orthogonalLoop=1;jettySize=auto;html=1;exitX=0;exitY=0.75;exitDx=0;exitDy=0;entryX=1;entryY=0.75;entryDx=0;entryDy=0;shadow=0;fontFamily=Comic Sans MS;" parent="1" source="4br2IXSDRD2dIp-kTlyZ-31" target="4br2IXSDRD2dIp-kTlyZ-11" edge="1">
          <mxGeometry relative="1" as="geometry" />
        </mxCell>
        <mxCell id="4br2IXSDRD2dIp-kTlyZ-31" value="Back End Data Model" style="rounded=1;whiteSpace=wrap;html=1;shadow=1;glass=1;sketch=1;strokeWidth=1;fillColor=#d5e8d4;fontFamily=Comic Sans MS;strokeColor=#82b366;" parent="1" vertex="1">
          <mxGeometry x="751" y="60" width="130" height="580" as="geometry" />
        </mxCell>
        <mxCell id="4br2IXSDRD2dIp-kTlyZ-43" value="" style="edgeStyle=orthogonalEdgeStyle;rounded=0;sketch=1;orthogonalLoop=1;jettySize=auto;html=1;shadow=0;fontFamily=Comic Sans MS;" parent="1" source="4br2IXSDRD2dIp-kTlyZ-40" target="4br2IXSDRD2dIp-kTlyZ-42" edge="1">
          <mxGeometry relative="1" as="geometry" />
        </mxCell>
        <mxCell id="4br2IXSDRD2dIp-kTlyZ-40" value="Forward Transformation" style="shape=process;whiteSpace=wrap;html=1;backgroundOutline=1;rounded=1;shadow=1;fontFamily=Comic Sans MS;strokeWidth=1;glass=1;sketch=1;" parent="1" vertex="1">
          <mxGeometry x="1050" y="60" width="120" height="60" as="geometry" />
        </mxCell>
        <mxCell id="4br2IXSDRD2dIp-kTlyZ-45" value="" style="edgeStyle=orthogonalEdgeStyle;rounded=0;sketch=1;orthogonalLoop=1;jettySize=auto;html=1;shadow=0;fontFamily=Comic Sans MS;" parent="1" source="4br2IXSDRD2dIp-kTlyZ-42" target="4br2IXSDRD2dIp-kTlyZ-44" edge="1">
          <mxGeometry relative="1" as="geometry" />
        </mxCell>
        <mxCell id="4br2IXSDRD2dIp-kTlyZ-42" value="Get Back-End Data" style="whiteSpace=wrap;html=1;rounded=1;shadow=1;fontFamily=Comic Sans MS;strokeWidth=1;glass=1;sketch=1;" parent="1" vertex="1">
          <mxGeometry x="1050" y="200" width="120" height="60" as="geometry" />
        </mxCell>
        <mxCell id="4br2IXSDRD2dIp-kTlyZ-47" value="" style="edgeStyle=orthogonalEdgeStyle;rounded=0;sketch=1;orthogonalLoop=1;jettySize=auto;html=1;shadow=0;fontFamily=Comic Sans MS;" parent="1" source="4br2IXSDRD2dIp-kTlyZ-44" target="4br2IXSDRD2dIp-kTlyZ-46" edge="1">
          <mxGeometry relative="1" as="geometry" />
        </mxCell>
        <mxCell id="4br2IXSDRD2dIp-kTlyZ-44" value="Integrate Data" style="whiteSpace=wrap;html=1;rounded=1;shadow=1;fontFamily=Comic Sans MS;strokeWidth=1;glass=1;sketch=1;" parent="1" vertex="1">
          <mxGeometry x="1050" y="340" width="120" height="60" as="geometry" />
        </mxCell>
        <mxCell id="4br2IXSDRD2dIp-kTlyZ-49" value="" style="edgeStyle=orthogonalEdgeStyle;rounded=0;sketch=1;orthogonalLoop=1;jettySize=auto;html=1;shadow=0;fontFamily=Comic Sans MS;" parent="1" source="4br2IXSDRD2dIp-kTlyZ-46" target="4br2IXSDRD2dIp-kTlyZ-48" edge="1">
          <mxGeometry relative="1" as="geometry" />
        </mxCell>
        <mxCell id="4br2IXSDRD2dIp-kTlyZ-46" value="Convert To a Front-End Model" style="whiteSpace=wrap;html=1;rounded=1;shadow=1;fontFamily=Comic Sans MS;strokeWidth=1;glass=1;sketch=1;" parent="1" vertex="1">
          <mxGeometry x="1050" y="480" width="120" height="60" as="geometry" />
        </mxCell>
        <mxCell id="4br2IXSDRD2dIp-kTlyZ-51" value="" style="edgeStyle=orthogonalEdgeStyle;rounded=0;sketch=1;orthogonalLoop=1;jettySize=auto;html=1;shadow=0;fontFamily=Comic Sans MS;" parent="1" source="4br2IXSDRD2dIp-kTlyZ-48" target="4br2IXSDRD2dIp-kTlyZ-50" edge="1">
          <mxGeometry relative="1" as="geometry" />
        </mxCell>
        <mxCell id="4br2IXSDRD2dIp-kTlyZ-48" value="Init Front-End Model" style="whiteSpace=wrap;html=1;rounded=1;shadow=1;fontFamily=Comic Sans MS;strokeWidth=1;glass=1;sketch=1;" parent="1" vertex="1">
          <mxGeometry x="1050" y="620" width="120" height="60" as="geometry" />
        </mxCell>
        <mxCell id="4br2IXSDRD2dIp-kTlyZ-50" value="Operate Front-End Data" style="shape=process;whiteSpace=wrap;html=1;backgroundOutline=1;rounded=1;shadow=1;fontFamily=Comic Sans MS;strokeWidth=1;glass=1;sketch=1;" parent="1" vertex="1">
          <mxGeometry x="1050" y="760" width="120" height="60" as="geometry" />
        </mxCell>
        <mxCell id="4br2IXSDRD2dIp-kTlyZ-54" value="" style="edgeStyle=orthogonalEdgeStyle;rounded=0;sketch=1;orthogonalLoop=1;jettySize=auto;html=1;shadow=0;fontFamily=Comic Sans MS;" parent="1" source="4br2IXSDRD2dIp-kTlyZ-52" target="4br2IXSDRD2dIp-kTlyZ-53" edge="1">
          <mxGeometry relative="1" as="geometry" />
        </mxCell>
        <mxCell id="4br2IXSDRD2dIp-kTlyZ-52" value="Revert Transformation" style="shape=process;whiteSpace=wrap;html=1;backgroundOutline=1;rounded=1;shadow=1;glass=1;sketch=1;strokeWidth=1;fillColor=#ffffff;gradientColor=none;fontFamily=Comic Sans MS;" parent="1" vertex="1">
          <mxGeometry x="1370" y="60" width="120" height="60" as="geometry" />
        </mxCell>
        <mxCell id="4br2IXSDRD2dIp-kTlyZ-56" value="" style="edgeStyle=orthogonalEdgeStyle;rounded=0;sketch=1;orthogonalLoop=1;jettySize=auto;html=1;shadow=0;fontFamily=Comic Sans MS;" parent="1" source="4br2IXSDRD2dIp-kTlyZ-53" target="4br2IXSDRD2dIp-kTlyZ-55" edge="1">
          <mxGeometry relative="1" as="geometry" />
        </mxCell>
        <mxCell id="4br2IXSDRD2dIp-kTlyZ-53" value="Convert To Back-End Model" style="whiteSpace=wrap;html=1;rounded=1;shadow=1;fontFamily=Comic Sans MS;strokeWidth=1;glass=1;sketch=1;" parent="1" vertex="1">
          <mxGeometry x="1370" y="200" width="120" height="60" as="geometry" />
        </mxCell>
        <mxCell id="4br2IXSDRD2dIp-kTlyZ-55" value="Request API" style="whiteSpace=wrap;html=1;rounded=1;shadow=1;fontFamily=Comic Sans MS;strokeWidth=1;glass=1;sketch=1;" parent="1" vertex="1">
          <mxGeometry x="1370" y="340" width="120" height="60" as="geometry" />
        </mxCell>
        <mxCell id="4br2IXSDRD2dIp-kTlyZ-60" style="edgeStyle=orthogonalEdgeStyle;rounded=0;sketch=1;orthogonalLoop=1;jettySize=auto;html=1;exitX=0;exitY=0.75;exitDx=0;exitDy=0;entryX=1;entryY=0.75;entryDx=0;entryDy=0;shadow=0;fontFamily=Comic Sans MS;" parent="1" source="4br2IXSDRD2dIp-kTlyZ-57" target="4br2IXSDRD2dIp-kTlyZ-24" edge="1">
          <mxGeometry relative="1" as="geometry" />
        </mxCell>
        <mxCell id="4br2IXSDRD2dIp-kTlyZ-61" value="Revert&lt;br&gt;Transformation" style="edgeLabel;html=1;align=center;verticalAlign=middle;resizable=0;points=[];fontFamily=Comic Sans MS;" parent="4br2IXSDRD2dIp-kTlyZ-60" vertex="1" connectable="0">
          <mxGeometry x="0.0794" y="4" relative="1" as="geometry">
            <mxPoint x="8" as="offset" />
          </mxGeometry>
        </mxCell>
        <mxCell id="4br2IXSDRD2dIp-kTlyZ-57" value="Back-End Data model" style="whiteSpace=wrap;html=1;aspect=fixed;rounded=1;shadow=1;glass=1;sketch=1;strokeWidth=1;fillColor=#ffffff;gradientColor=none;fontFamily=Comic Sans MS;" parent="1" vertex="1">
          <mxGeometry x="740" y="830" width="210" height="210" as="geometry" />
        </mxCell>
        <mxCell id="4br2IXSDRD2dIp-kTlyZ-65" value="" style="edgeStyle=orthogonalEdgeStyle;rounded=0;sketch=1;orthogonalLoop=1;jettySize=auto;html=1;shadow=0;fontFamily=Comic Sans MS;" parent="1" source="4br2IXSDRD2dIp-kTlyZ-62" target="4br2IXSDRD2dIp-kTlyZ-64" edge="1">
          <mxGeometry relative="1" as="geometry" />
        </mxCell>
        <mxCell id="4br2IXSDRD2dIp-kTlyZ-62" value="state" style="shape=ext;double=1;rounded=0;whiteSpace=wrap;html=1;shadow=1;glass=1;sketch=1;strokeWidth=1;fillColor=#ffffff;gradientColor=none;fontFamily=Comic Sans MS;" parent="1" vertex="1">
          <mxGeometry x="140" y="1250" width="120" height="80" as="geometry" />
        </mxCell>
        <mxCell id="4br2IXSDRD2dIp-kTlyZ-63" value="Vuex 使用规范" style="text;strokeColor=none;fillColor=none;html=1;fontSize=24;fontStyle=1;verticalAlign=middle;align=center;rounded=1;shadow=1;glass=1;sketch=1;" parent="1" vertex="1">
          <mxGeometry x="90" y="1190" width="220" height="40" as="geometry" />
        </mxCell>
        <mxCell id="4br2IXSDRD2dIp-kTlyZ-64" value="Front-End Data Model" style="shape=note;whiteSpace=wrap;html=1;backgroundOutline=1;darkOpacity=0.05;rounded=0;shadow=1;fontFamily=Comic Sans MS;strokeWidth=1;glass=1;sketch=1;" parent="1" vertex="1">
          <mxGeometry x="360" y="1187.5" width="140" height="205" as="geometry" />
        </mxCell>
        <mxCell id="4br2IXSDRD2dIp-kTlyZ-68" value="" style="edgeStyle=orthogonalEdgeStyle;rounded=0;sketch=1;orthogonalLoop=1;jettySize=auto;html=1;shadow=0;fontFamily=Comic Sans MS;" parent="1" source="4br2IXSDRD2dIp-kTlyZ-66" target="4br2IXSDRD2dIp-kTlyZ-67" edge="1">
          <mxGeometry relative="1" as="geometry" />
        </mxCell>
        <mxCell id="4br2IXSDRD2dIp-kTlyZ-66" value="getters" style="rounded=0;whiteSpace=wrap;html=1;shadow=1;glass=1;sketch=1;strokeWidth=1;fillColor=#ffffff;gradientColor=none;fontFamily=Comic Sans MS;" parent="1" vertex="1">
          <mxGeometry x="140" y="1500" width="120" height="60" as="geometry" />
        </mxCell>
        <mxCell id="4br2IXSDRD2dIp-kTlyZ-67" value="read-only Data Model&lt;br&gt;前端用于展示模型的数据唯一入口" style="shape=note;whiteSpace=wrap;html=1;backgroundOutline=1;darkOpacity=0.05;rounded=0;shadow=1;fontFamily=Comic Sans MS;strokeWidth=1;glass=1;sketch=1;" parent="1" vertex="1">
          <mxGeometry x="375" y="1455" width="110" height="150" as="geometry" />
        </mxCell>
        <mxCell id="4br2IXSDRD2dIp-kTlyZ-71" value="" style="edgeStyle=orthogonalEdgeStyle;rounded=0;sketch=1;orthogonalLoop=1;jettySize=auto;html=1;shadow=0;fontFamily=Comic Sans MS;" parent="1" source="4br2IXSDRD2dIp-kTlyZ-69" target="4br2IXSDRD2dIp-kTlyZ-70" edge="1">
          <mxGeometry relative="1" as="geometry" />
        </mxCell>
        <mxCell id="4br2IXSDRD2dIp-kTlyZ-69" value="mutations" style="rounded=0;whiteSpace=wrap;html=1;shadow=1;glass=1;sketch=1;strokeWidth=1;fillColor=#ffffff;gradientColor=none;fontFamily=Comic Sans MS;" parent="1" vertex="1">
          <mxGeometry x="140" y="1770" width="120" height="60" as="geometry" />
        </mxCell>
        <mxCell id="4br2IXSDRD2dIp-kTlyZ-70" value="Modify Front-End Data&lt;br&gt;修改前端模型数据的唯一入口，一般用于展示中页面数据变化。" style="shape=note;whiteSpace=wrap;html=1;backgroundOutline=1;darkOpacity=0.05;rounded=0;shadow=1;fontFamily=Comic Sans MS;strokeWidth=1;glass=1;sketch=1;" parent="1" vertex="1">
          <mxGeometry x="367.5" y="1705" width="125" height="190" as="geometry" />
        </mxCell>
        <mxCell id="4br2IXSDRD2dIp-kTlyZ-75" value="" style="edgeStyle=orthogonalEdgeStyle;rounded=0;sketch=1;orthogonalLoop=1;jettySize=auto;html=1;shadow=0;fontFamily=Comic Sans MS;" parent="1" source="4br2IXSDRD2dIp-kTlyZ-73" target="4br2IXSDRD2dIp-kTlyZ-74" edge="1">
          <mxGeometry relative="1" as="geometry" />
        </mxCell>
        <mxCell id="4br2IXSDRD2dIp-kTlyZ-73" value="actions" style="rounded=0;whiteSpace=wrap;html=1;shadow=1;glass=1;sketch=1;strokeWidth=1;fillColor=#ffffff;gradientColor=none;fontFamily=Comic Sans MS;" parent="1" vertex="1">
          <mxGeometry x="150" y="2040" width="120" height="60" as="geometry" />
        </mxCell>
        <mxCell id="4br2IXSDRD2dIp-kTlyZ-74" value="Affairs&lt;br&gt;前端的事务，对外暴露的事件，脱离ui页面完全可以通过某种顺序调用action完成某些功能。一般为异步事件。" style="shape=note;whiteSpace=wrap;html=1;backgroundOutline=1;darkOpacity=0.05;rounded=0;shadow=1;fontFamily=Comic Sans MS;strokeWidth=1;glass=1;sketch=1;" parent="1" vertex="1">
          <mxGeometry x="370" y="1990" width="120" height="160" as="geometry" />
        </mxCell>
        <mxCell id="Ofklyt-o_QJBo51mISnL-2" value="" style="rounded=1;whiteSpace=wrap;html=1;sketch=1;shadow=1;glass=1;fillColor=#fff2cc;strokeColor=#d6b656;horizontal=1;" vertex="1" parent="1">
          <mxGeometry x="650" y="1187.5" width="750" height="732.5" as="geometry" />
        </mxCell>
        <mxCell id="Ofklyt-o_QJBo51mISnL-3" value="header" style="rounded=0;whiteSpace=wrap;html=1;shadow=1;glass=1;sketch=1;fontFamily=Comic Sans MS;fillColor=#f5f5f5;strokeColor=#666666;fontColor=#333333;" vertex="1" parent="1">
          <mxGeometry x="680" y="1220" width="430" height="50" as="geometry" />
        </mxCell>
        <mxCell id="Ofklyt-o_QJBo51mISnL-4" value="PDF Content" style="rounded=0;whiteSpace=wrap;html=1;shadow=1;glass=1;sketch=1;fontFamily=Comic Sans MS;fillColor=#dae8fc;strokeColor=#6c8ebf;" vertex="1" parent="1">
          <mxGeometry x="680" y="1290" width="430" height="520" as="geometry" />
        </mxCell>
        <mxCell id="Ofklyt-o_QJBo51mISnL-5" value="Controller bar" style="rounded=1;whiteSpace=wrap;html=1;shadow=1;glass=1;sketch=1;fontFamily=Comic Sans MS;fillColor=#ffe6cc;strokeColor=#d79b00;" vertex="1" parent="1">
          <mxGeometry x="680" y="1830" width="430" height="60" as="geometry" />
        </mxCell>
        <mxCell id="Ofklyt-o_QJBo51mISnL-6" value="Data" style="ellipse;whiteSpace=wrap;html=1;rounded=1;shadow=1;glass=1;sketch=1;fontFamily=Comic Sans MS;fillColor=#ffff88;strokeColor=#36393d;" vertex="1" parent="1">
          <mxGeometry x="1190" y="1240" width="120" height="80" as="geometry" />
        </mxCell>
        <mxCell id="Ofklyt-o_QJBo51mISnL-7" value="page operate&lt;br&gt;&lt;br&gt;request&lt;br&gt;&amp;amp;&amp;amp; pageInit&lt;br&gt;&amp;amp;&amp;amp; event method" style="shape=process;whiteSpace=wrap;html=1;backgroundOutline=1;rounded=1;shadow=1;glass=1;sketch=1;fontFamily=Comic Sans MS;fillColor=#ffcccc;strokeColor=#36393d;" vertex="1" parent="1">
          <mxGeometry x="1155" y="1400" width="190" height="400" as="geometry" />
        </mxCell>
        <mxCell id="Ofklyt-o_QJBo51mISnL-8" value="数据模型" style="text;html=1;strokeColor=none;fillColor=none;align=center;verticalAlign=middle;whiteSpace=wrap;rounded=0;shadow=1;glass=1;sketch=1;fontFamily=Comic Sans MS;fontSize=39;" vertex="1" parent="1">
          <mxGeometry x="176" y="2390" width="237.5" height="70" as="geometry" />
        </mxCell>
        <mxCell id="Ofklyt-o_QJBo51mISnL-10" value="" style="rounded=1;whiteSpace=wrap;html=1;shadow=1;glass=1;sketch=1;fontFamily=Comic Sans MS;fontSize=39;fillColor=#ffe6cc;strokeColor=#d79b00;" vertex="1" parent="1">
          <mxGeometry x="110" y="2480" width="384.75" height="400" as="geometry" />
        </mxCell>
        <mxCell id="Ofklyt-o_QJBo51mISnL-12" value="页面数据" style="text;html=1;strokeColor=none;fillColor=none;align=center;verticalAlign=middle;whiteSpace=wrap;rounded=0;shadow=1;glass=1;sketch=1;fontFamily=Comic Sans MS;fontSize=39;" vertex="1" parent="1">
          <mxGeometry x="154.25" y="2500" width="281" height="20" as="geometry" />
        </mxCell>
        <mxCell id="Ofklyt-o_QJBo51mISnL-14" value="Base Data Model" style="rounded=1;whiteSpace=wrap;html=1;shadow=1;glass=1;sketch=1;fontFamily=Comic Sans MS;fontSize=39;gradientColor=#7ea6e0;fillColor=#dae8fc;strokeColor=#6c8ebf;" vertex="1" parent="1">
          <mxGeometry x="125" y="2550" width="355" height="80" as="geometry" />
        </mxCell>
        <mxCell id="Ofklyt-o_QJBo51mISnL-15" value="&lt;font style=&quot;font-size: 18px&quot;&gt;PageA Unique Data Model&amp;nbsp;&lt;/font&gt;" style="rounded=1;whiteSpace=wrap;html=1;shadow=1;glass=1;sketch=1;fontFamily=Comic Sans MS;fontSize=39;gradientColor=#b3b3b3;fillColor=#f5f5f5;strokeColor=#666666;" vertex="1" parent="1">
          <mxGeometry x="150" y="2680" width="120" height="160" as="geometry" />
        </mxCell>
        <mxCell id="Ofklyt-o_QJBo51mISnL-16" value="&lt;font style=&quot;font-size: 18px&quot;&gt;PageB Unique Data Model&amp;nbsp;&lt;/font&gt;" style="rounded=1;whiteSpace=wrap;html=1;shadow=1;glass=1;sketch=1;fontFamily=Comic Sans MS;fontSize=39;gradientColor=#b3b3b3;fillColor=#f5f5f5;strokeColor=#666666;" vertex="1" parent="1">
          <mxGeometry x="320" y="2680" width="120" height="160" as="geometry" />
        </mxCell>
      </root>
    </mxGraphModel>
  </diagram>
</mxfile>
